<svg xmlns="http://www.w3.org/2000/svg" viewBox="0 0 32 32" fill="none" role="img" aria-label="CEV">
  <circle cx="16" cy="16" r="16" fill="#FFFFFF"/>
  <path d="M6.5 9.5L13 7.5L19.5 9.5L13 11.5L6.5 9.5Z" fill="#8CC63F"/>
  <path d="M13 7.5L19.5 9.5L26 7.5L19.5 5.5L13 7.5Z" fill="#F7EC13"/>
  <path d="M5.5 16.5C5.5 13.5 7.9 11 11 11C12.4 11 13.6 11.4 14.5 12.1L13.2 13.8C12.6 13.3 11.8 13 11 13C9.1 13 7.7 14.4 7.7 16.2C7.7 18 9.1 19.4 11 19.4C11.8 19.4 12.6 19.1 13.2 18.6L14.5 20.3C13.6 21 12.4 21.4 11 21.4C7.9 21.4 5.5 18.9 5.5 16.5Z" fill="#8CC63F"/>
  <path d="M15.2 12.2H20.6V14H17.5V15.1H20.2V16.8H17.5V18.6H20.8V20.4H15.2V12.2Z" fill="#F7EC13"/>
  <path d="M21.2 12.2H23.3L25.3 18.2L27.3 12.2H29.4L26.4 20.4H24.3L21.2 12.2Z" fill="#8CC63F"/>
</svg>
